<?xml version="1.0" encoding="utf-8"?>
<!-- Generator: Adobe Illustrator 19.2.1, SVG Export Plug-In . SVG Version: 6.00 Build 0)  -->
<svg version="1.1" id="Layer_1" xmlns="http://www.w3.org/2000/svg" xmlns:xlink="http://www.w3.org/1999/xlink" x="0px" y="0px"
	 viewBox="0 0 128 128" style="enable-background:new 0 0 128 128;" xml:space="preserve">
<style type="text/css">
	.st0{fill:#22F24E;}
	.st1{fill:none;stroke:#000000;stroke-width:6;stroke-linecap:round;stroke-linejoin:round;}
	.st2{fill:none;stroke:#000000;stroke-width:6;stroke-linecap:round;}
</style>
<g>
	<title>Layer 1</title>
	<g id="layer2">
	</g>
	<g id="layer1">
		<path id="path3997" class="st0" d="M33.7,73.9l-17.8,26.6c-8.2,9.9-2.5,24,15.7,22.6c0.9-0.1,61.5-0.2,61.5-0.2
			c24.6,0.9,23.4-16.4,16.6-24.5l-16.4-24L33.7,73.9z"/>
		<path id="rect3162" marker-start="none" marker-end="none" marker-mid="none" class="st1" d="M43,6.4c6.5,6.4,5.5,11.3,5.6,19
			L48.9,50L17.1,97.6c-7.7,12.8-2.5,25.4,10.1,24.7l73,0.1c13.7-0.1,18.6-12.7,8.1-26L78.1,50.1l-0.6-24.6
			c-0.1-7.8-1.1-12.6,5.3-19.1L43,6.4z"/>
		<path id="path3180" class="st2" d="M77.5,25.2H66.6"/>
		<path id="path3182" class="st2" d="M77.5,44.4H66.6"/>
		<path id="path3184" class="st2" d="M83.7,64.3H72.8"/>
		<path id="path3186" class="st2" d="M94.3,79.8H83.4"/>
		<path id="path3188" class="st2" d="M105,95.2H94.1"/>
	</g>
</g>
</svg>
