<?xml version="1.0"?><svg width="709.63971" height="318.59503" xmlns="http://www.w3.org/2000/svg">
 <title>bluewhale</title>

 <metadata id="metadata7">image/svg+xml</metadata>
 <g>
  <title>Layer 1</title>
  <g id="layer1">
   <path fill="#82baf2" fill-rule="evenodd" stroke="#000000" stroke-width="15" stroke-linecap="round" stroke-linejoin="round" marker-start="none" stroke-miterlimit="4" id="path2491" d="m465.670044,185.146011c17.360107,-18.574951 -2.616638,-52.275131 -1.190063,-100.233307c1.423706,-47.862511 33.749878,-64.176338 33.749878,-64.176338c0,0 -10.327637,4.037277 -6.982117,27.38102c2.837341,19.797714 9.13092,42.818954 23.504822,55.577408c14.785706,12.226913 39.116211,45.619019 30.141724,63.456146c18.092468,-6.141876 46.272095,8.398163 67.086426,27.672043c21.720581,20.557312 35.629211,30.453522 50.690002,35.267395c21.622681,6.911209 37.468994,0.815399 37.468994,0.815399c-24.746887,21.360397 -72.187866,21.674423 -103.152466,15.919907c-30.293518,-5.629883 -47.194336,-22.113113 -74.751648,-15.800003c-34.973145,11.952042 -92.854797,66.093277 -181.52359,77.64003c-88.668823,11.546753 -298.261932,-20.391846 -323.39595,-46.824402c-25.134003,-26.43251 -2.098511,-35.331314 -3.751114,-34.14006c-0.22403,-0.237335 6.034103,5.975769 133.220825,37.494247c-22.81604,-3.666687 -138.200882,-40.992599 -137.985504,-42.525375c0.322174,0.109406 51.89415,-190.667534 94.9646,-211.039711c43.070465,-20.372181 140.9664,38.962379 216.251221,82.98835c89.276337,52.208099 125.839325,111.728424 145.653961,90.527252z"/>
   <path fill="#82baf2" stroke="#000000" stroke-width="15" stroke-linecap="round" stroke-linejoin="round" stroke-miterlimit="4" d="m198.406555,233.782913a11.657166,9.820429 0 1 1 -23.314331,0a11.657166,9.820429 0 1 1 23.314331,0z" id="path3894"/>
  </g>
 </g>
</svg>